<?xml version="1.0" encoding="UTF-8"?>
<!DOCTYPE svg PUBLIC "-//W3C//DTD SVG 1.1//EN" "http://www.w3.org/Graphics/SVG/1.1/DTD/svg11.dtd">
<!-- Creator: CorelDRAW -->
<svg xmlns="http://www.w3.org/2000/svg" xml:space="preserve" width="600px" height="200px" style="shape-rendering:geometricPrecision; text-rendering:geometricPrecision; image-rendering:optimizeQuality; fill-rule:evenodd; clip-rule:evenodd"
viewBox="0 0 46.2756 15.4252"
 xmlns:xlink="http://www.w3.org/1999/xlink">
 <defs>
  <style type="text/css">
   <![CDATA[
    .fil3 {fill:none}
    .fil1 {fill:#28166F}
    .fil2 {fill:#DA251D}
    .fil0 {fill:#E77817}
   ]]>
  </style>
 </defs>
 <g id="Layer_x0020_1">
  <metadata id="CorelCorpID_0Corel-Layer"/>
  <g id="_100337952">
   <path id="_100338024" class="fil0" d="M5.70528 3.97531l0 -0.000231378 -0.0112604 -0.009178 -0.0107012 0.00912015 0 0.000289223 -0.0185295 0.015618 -0.00418409 0.00362492 0 -5.78445e-005 -0.614463 0.329116 0.615311 0.33168 0.613402 -0.388021 -0.569576 -0.291961zm-0.0319302 3.3444l-0.423807 0.436437 0.414957 0.452749 0.0868825 0.0494763 0.0212289 -0.025413 0.397758 -0.474537 -0.497019 -0.438712zm-0.109075 -0.269266l0.674795 -0.520871 -0.4079 -0.313768 -0.043769 -0.0436726 -0.0364228 -0.0181053 -0.0177197 0.0157337 0 -5.78445e-005 -0.610549 0.464626 0.441566 0.416114zm0.161232 -1.18936l0.644754 -0.539554 -0.632819 -0.353411 -0.615948 0.411101 0.604012 0.481864zm-0.0427664 -2.14032l0 -0.000115689 1.19989 0.505927 -0.914252 0.600657 0.537858 0.335575c0,0 1.23569,-1.22968 2.33653,-1.46973 0.534117,-0.116422 1.45494,0.0343211 1.81341,0.70202 0.215644,0.331276 0.199795,1.29367 -0.416095,1.73667 -0.823147,0.658425 -2.08591,0.0435955 -2.08591,0.0435955 0,0 1.84416,0.380212 2.21733,-0.920981 0,0 0.18757,-0.52625 -0.347915,-0.913481 -0.518383,-0.374755 -1.04994,-0.342189 -1.60195,-0.126506 -0.41997,0.164163 -0.964229,0.48196 -1.60632,1.08703l0.521777 0.265352c0,0 1.09002,-1.03877 1.47419,-0.44305 0.265429,0.282744 -0.187705,0.955707 -1.24061,0.627844l-0.934748 0.811269 0.495207 0.320054c0,0 1.17482,-0.620537 1.17482,0.216088 -0.0182017,0.409192 -0.760983,0.369723 -1.09027,0.056167l-0.675913 0.616623c0,0 0.578272,0.589609 1.12706,0.370147 0.0428821,0.110869 -0.107706,0.222875 -0.362878,0.216358 -0.372943,-0.00956363 -0.62715,-0.204018 -0.9108,-0.461406l-0.517303 0.605304c0.0899868,0.220966 0.366329,0.660854 0.385592,1.21751 0.0380038,1.19308 -0.824458,1.01295 -0.815453,0.812484 0,0.0355551 0.662725,0.167537 0.585946,-0.803884 0.00682565,-0.507894 -0.291806,-1.10369 -0.291806,-1.10369 0.00989141,0.0318338 -0.548964,0.668393 -0.575418,1.69301 -0.0194165,1.24865 0.97441,0.635692 0.955379,0.536566 -0.107706,0.413048 -0.265699,0.618724 -0.613518,0.568843 -0.310818,-0.0445403 -0.657673,-0.67653 -0.527253,-1.4766 0.0744652,-0.752306 0.518499,-1.26973 0.614077,-1.48269l-0.501261 -0.607001c0,0 -0.570771,0.470353 -0.943945,0.454619 -0.373174,-0.0156951 -0.377937,-0.185469 -0.377937,-0.185469 0.548771,0.219424 1.07894,-0.457319 1.07894,-0.457319l-0.64647 -0.43179c-0.32929,0.313537 -1.03596,0.308909 -1.03137,-0.0696062 -0.0173919,-0.716231 0.929947,-0.186645 0.929947,-0.186645l0.662378 -0.436379 -0.735358 -0.686904c-0.393748,0.240055 -0.762969,0.157086 -1.00489,0.0334148 -0.311088,-0.159015 -0.370224,-0.422284 -0.269208,-0.542215 0.105007,-0.177293 0.388542,-0.193046 0.636232,-0.116653 0.31853,0.0982585 0.599925,0.326802 0.599925,0.326802l0.706937 -0.268418c-0.642113,-0.605034 -1.19769,-0.963767 -1.61764,-1.12793 -0.551952,-0.215683 -1.24005,-0.213485 -1.75845,0.16129 -0.580045,0.56973 -0.368605,1.19933 0.131056,1.58452 0.440852,0.339875 1.12544,0.477988 1.41441,0.381272 0,0 -0.77099,0.579756 -1.59421,-0.0786685 -0.643115,-0.514353 -0.762757,-1.26359 -0.514296,-1.72637 0.358482,-0.667699 1.2619,-0.822626 1.79603,-0.706185 1.10086,0.240035 2.30562,1.41852 2.30562,1.41852l0.639278 -0.391916 -1.01569 -0.566799 1.17737 -0.517246 0 0.000231378 0.0111061 -0.009178 0.0108555 0.00906231zm-1.70551 3.41429c0.252318,0.095482 -0.750166,-0.488921 -0.647608,-0.0383895 0.129456,0.436186 0.647608,0.0383895 0.647608,0.0383895zm-0.120066 -1.36951l0 0c0,0 -0.954299,-0.729361 -0.966813,-0.266644 -0.0120124,0.44413 0.848405,0.33008 0.966813,0.266644zm1.66328 0.218807l-0.630042 0.432195 -0.599018 -0.578677 0.670881 -0.329174 0.55818 0.475655zm-0.518769 1.57603l-0.565546 -0.424829 0.549581 -0.389313 0.480939 0.429129 -0.464973 0.385013zm2.46759 -0.551046l0 0c0,0 0.535525,0.474036 0.664923,0.0552222 0.0862462,-0.326243 -0.664923,-0.0552222 -0.664923,-0.0552222zm0.279215 -1.40433l0 0c0.118427,0.0634361 0.994848,0.142702 0.982836,-0.301428 -0.0124944,-0.462698 -0.982836,0.301428 -0.982836,0.301428zm-1.81481 0.401846l0.0584422 0 0.64595 -0.557062 0.558817 0.26809 -0.798621 0.66525 -0.464588 -0.376279zm-0.107205 1.20176l0.121763 -0.104371 0.52438 -0.432407 0.468193 0.327304 -0.665887 0.577269 -0.448449 -0.367795z"/>
   <path id="_100337928" class="fil1" d="M37.0755 7.9934l0 -0.130767c0.0899675,0 0.171509,-0.0326629 0.26138,-0.0980464 0.0898711,-0.0571697 0.188091,-0.163334 0.318665,-0.318608l1.47058 -1.82197 0 0.34323 -0.555558 0.686248 0.555558 0 0 0.23695 -0.7353 0 -0.375816 0.457512c-0.0654029,0.0816765 -0.106203,0.138865 -0.130594,0.187898 -0.0246803,0.0490136 -0.0410118,0.0980464 -0.0410118,0.138885 0,0.0571889 0.0326821,0.0980464 0.0898518,0.130729 0.0571889,0.0327014 0.14706,0.0490521 0.261496,0.0571697l0 0.130767 -1.11925 0zm4.70598 -1.71573c0.032605,-0.0898904 0.0489365,-0.163449 0.0654029,-0.22058 0.016235,-0.0572275 0.016235,-0.098085 0.016235,-0.12263 0,-0.0489172 -0.016235,-0.0898711 -0.0571504,-0.114301 -0.0407225,-0.0245068 -0.0981236,-0.0408961 -0.179742,-0.0408961l-0.0490521 0 0.00811751 -0.13069c0.187956,-0.0164086 0.384145,-0.0326821 0.596493,-0.0653643 0.212424,-0.0245068 0.432966,-0.0571889 0.661876,-0.0981043l-0.514855 1.871c-0.00811751,0.0408382 -0.0163507,0.0735204 -0.0163507,0.0898711 -0.00811751,0.0245068 -0.00811751,0.0408382 -0.00811751,0.0571889 0,0.0408575 0.00811751,0.0654029 0.0244682,0.0898711 0.00832961,0.0163314 0.0327207,0.0245068 0.0571697,0.0245068 0.0327014,0 0.0735397,-0.0162929 0.114474,-0.0653257 0.0489172,-0.0490521 0.122553,-0.147137 0.220658,-0.302334l0.138788 0.0980657c-0.171374,0.261419 -0.334978,0.457512 -0.482038,0.580045 -0.155274,0.114378 -0.31855,0.1798 -0.490252,0.1798 -0.147041,0 -0.26138,-0.0409154 -0.343134,-0.122611 -0.0816379,-0.0734818 -0.122476,-0.187898 -0.122476,-0.334958 0,-0.048975 0.0162736,-0.122553 0.0408382,-0.236931 0.0163507,-0.106222 0.0489365,-0.228756 0.0899675,-0.359484l0.228679 -0.776138zm1.58494 -0.629098c0.269594,-0.0164086 0.506622,-0.0408575 0.718949,-0.0735975 0.220677,-0.0244489 0.392186,-0.0571504 0.522972,-0.0898711l-0.285964 0.972308c0.22058,-0.375816 0.400284,-0.637254 0.547344,-0.784333 0.147118,-0.14706 0.285945,-0.220658 0.424868,-0.220658 0.114436,0 0.196074,0.0326821 0.25334,0.10628 0.0571889,0.0734625 0.0898711,0.171548 0.0898711,0.302315 0,0.130709 -0.0326821,0.245049 -0.0980657,0.318588 -0.0571889,0.0817343 -0.147156,0.122534 -0.261515,0.122534 -0.0898711,0 -0.179704,-0.0407997 -0.24501,-0.114359 -0.0652872,-0.0653643 -0.114359,-0.106183 -0.147041,-0.106183 -0.114436,0 -0.269498,0.187879 -0.465803,0.563675 -0.204191,0.375854 -0.359465,0.82521 -0.482057,1.34812l-0.825152 0 0.457569 -1.70759 0.01637 -0.048975c0.0407997,-0.155235 0.0653836,-0.25332 0.0653836,-0.294159 0,-0.0571311 -0.0245839,-0.0898711 -0.0571889,-0.122515 -0.0409154,-0.0245068 -0.0982007,-0.0327207 -0.179819,-0.0327207l-0.0490521 0 0 -0.138865zm-4.24029 -0.0245646l1.11114 -1.36442 0.449336 0 -0.0816379 3.04748 0 0.0326821c0,0.171567 0.0491678,0.302295 0.139039,0.392167 0.0816379,0.0898518 0.212212,0.138923 0.391935,0.138923l0 0.122553 -1.98532 0 0 -0.122553c0.187956,-0.0163314 0.310529,-0.0571889 0.375931,-0.114416 0.0571697,-0.0572275 0.0898518,-0.212405 0.098085,-0.449355l0.016235 -0.416635 -0.514739 0 0 -0.23695 0.506737 0 0.0488401 -1.37261 -0.555577 0.686364 0 -0.34323z"/>
   <path id="_99344136" class="fil1" d="M17.99 7.49493c-0.0163314,0.0736361 -0.0163314,0.122611 -0.0163314,0.155293 0,0.0571889 0,0.114359 0.0163314,0.155235l0 -0.310529zm0 -1.79734l0 0.326744c-0.0163314,0.0572661 -0.0408575,0.114416 -0.0735204,0.155274 -0.0653643,0.0817343 -0.155235,0.122534 -0.261399,0.122534 -0.0980464,0 -0.187918,-0.0407997 -0.253359,-0.114359 -0.0653643,-0.0653643 -0.114339,-0.106183 -0.14706,-0.106183 -0.114339,0 -0.269594,0.187879 -0.465648,0.563675 -0.204288,0.375854 -0.359504,0.82521 -0.482057,1.34812l-0.825191 0 0.465668 -1.70759 0.00821392 -0.048975c0.0408575,-0.155235 0.0653643,-0.25332 0.0653643,-0.294159 0,-0.0571311 -0.0245068,-0.0898711 -0.0572275,-0.122515 -0.0408575,-0.0245068 -0.0980464,-0.0327207 -0.179704,-0.0327207l-0.0490136 0 0 -0.138865c0.269594,-0.0164086 0.506525,-0.0408575 0.718949,-0.0735975 0.22058,-0.0244489 0.392186,-0.0571504 0.522914,-0.0898711l-0.286003 0.972308c0.220658,-0.375816 0.4004,-0.637254 0.54744,-0.784333 0.147021,-0.14706 0.285945,-0.220658 0.424791,-0.220658 0.114416,0 0.196112,0.0326821 0.25332,0.10628 0.0326629,0.0408189 0.0571889,0.0898711 0.0735204,0.138885l0 0zm-2.97394 -0.285945c0,-0.0245261 0,-0.0408575 0,-0.0572082 0,-0.0245646 0,-0.0408961 0,-0.0571889 0,-0.245126 -0.0653065,-0.441219 -0.196074,-0.596454 -0.130709,-0.155216 -0.29412,-0.228756 -0.506564,-0.228756 -0.171528,0 -0.310471,0.0572468 -0.416673,0.163411 -0.106222,0.106203 -0.163353,0.245184 -0.163353,0.416673 0,0.187956 0.163353,0.424829 0.498369,0.710813 0.0571889,0.0490714 0.106203,0.0816572 0.130671,0.114378 0.0245454,0.0163314 0.0571697,0.0409154 0.106164,0.0816957 0.400458,0.351251 0.604668,0.694481 0.604668,1.03761 0,0.351328 -0.114339,0.620922 -0.335016,0.80884 -0.228775,0.196112 -0.539169,0.294159 -0.947724,0.294159 -0.245068,0 -0.482057,-0.03274 -0.710755,-0.106222 -0.220638,-0.0735589 -0.343153,-0.10626 -0.36766,-0.10626 -0.0408768,0 -0.0816765,0.00821392 -0.114359,0.0327014 -0.0326821,0.0245454 -0.0735782,0.0735589 -0.114436,0.138923l-0.14706 0 0.277789 -1.20106 0.14706 0 0 0.01637c0,0.335035 0.0735589,0.588259 0.212444,0.751651 0.130729,0.163372 0.343153,0.245126 0.629078,0.245126 0.187898,0 0.335035,-0.0571889 0.457512,-0.171644 0.122553,-0.114339 0.179742,-0.261399 0.179742,-0.441122 0,-0.212482 -0.179742,-0.473901 -0.531051,-0.78441 -0.0326243,-0.0162543 -0.0490136,-0.0325857 -0.0571889,-0.0407611 -0.00815608,-0.00821392 -0.0163314,-0.01637 -0.0245068,-0.0245454 -0.490174,-0.416635 -0.735281,-0.776196 -0.735281,-1.07843 0,-0.310548 0.114397,-0.563772 0.343076,-0.776196 0.228833,-0.204191 0.522992,-0.310432 0.882418,-0.310432 0.212366,0 0.408517,0.0408575 0.604572,0.11432 0.204268,0.0735397 0.302315,0.106222 0.318704,0.106222 0.0407997,0 0.0816572,-0.00813679 0.122515,-0.0326821 0.0408382,-0.0326436 0.0735589,-0.0653065 0.106203,-0.114378l0.14706 0 -0.245106 1.09486 -0.155235 0zm5.13087 2.71248l0 -0.294159c0,-0.841503 -0.01637,-1.39706 -0.0735204,-1.6585 -0.0490714,-0.269594 -0.138943,-0.400323 -0.269652,-0.400323 -0.00817536,0 -0.0163507,0 -0.0244682,0 -0.0163893,0 -0.0245646,0.00811751 -0.0408575,0.00811751l0 -0.138885c0.27775,-0.0244875 0.571889,-0.0735589 0.874185,-0.130709 0.081715,-0.0163893 0.130671,-0.0245646 0.147021,-0.0245646 0.0490714,0 0.0898904,0.122611 0.122573,0.359484 0.0408768,0.237008 0.0653643,0.588317 0.0817536,1.06216l0.857834 -1.43794 0.318588 0 0.187995 1.86277c0.179704,-0.212347 0.326764,-0.408459 0.433005,-0.588279 0.106203,-0.179684 0.163391,-0.310394 0.163391,-0.383953 0,-0.0653257 -0.0571889,-0.14706 -0.163391,-0.245126 -0.114378,-0.0980272 -0.171625,-0.20423 -0.171625,-0.302218 0,-0.0981043 0.0408961,-0.187995 0.122553,-0.253301 0.0735204,-0.0735975 0.171625,-0.10628 0.294178,-0.10628 0.114359,0 0.212424,0.0408575 0.285983,0.122553 0.0735204,0.0817536 0.106203,0.187956 0.106203,0.310567 0,0.196054 -0.106203,0.465668 -0.334997,0.825094 -0.22058,0.359484 -0.51472,0.735339 -0.890613,1.13564l-0.236873 0.25334 -0.375835 0.0245068 -0.138923 -1.49515 -0.898692 1.47881 -0.375816 0.0163314zm-2.15693 -2.09979c0.00817536,-0.0489172 0.01637,-0.106106 0.01637,-0.163314 0,-0.0653643 -0.00819464,-0.114436 -0.01637,-0.16343l0 0.326744zm0 1.78113l0 -0.310529c0,-0.0244489 0.00817536,-0.0489557 0.01637,-0.0816379 0.0163507,-0.106222 0.048975,-0.228756 0.0898711,-0.359484l0.236931 -0.776138c0.0244489,-0.0898904 0.0490136,-0.163449 0.0571889,-0.22058 0.0163314,-0.0572275 0.0244489,-0.098085 0.0244489,-0.12263 0,-0.0489172 -0.0244489,-0.0898711 -0.0653065,-0.114301 -0.0327014,-0.0245068 -0.098085,-0.0408961 -0.171605,-0.0408961l-0.0490714 0 0 -0.13069c0.187975,-0.0164086 0.384088,-0.0326821 0.596493,-0.0653643 0.212424,-0.0245068 0.433024,-0.0571889 0.66178,-0.0981043l-0.51472 1.871c-0.00811751,0.0408382 -0.0163314,0.0735204 -0.0163314,0.0898711 -0.00817536,0.0245068 -0.00817536,0.0408382 -0.00817536,0.0571889 0,0.0408575 0.00817536,0.0654029 0.0245068,0.0898711 0.00813679,0.0163314 0.0326821,0.0245068 0.0653643,0.0245068 0.0326436,0 0.0653257,-0.0162929 0.106222,-0.0653257 0.0489943,-0.0490521 0.122476,-0.147137 0.22058,-0.302334l0.138885 0.0980657c-0.171567,0.261419 -0.334958,0.457512 -0.48198,0.580045 -0.155274,0.114378 -0.318704,0.1798 -0.490271,0.1798 -0.14706,0 -0.261438,-0.0409154 -0.343191,-0.122611 -0.048975,-0.0407997 -0.0816186,-0.106164 -0.0979886,-0.179723l0 0zm6.65862 0.359465l0 0.874262c-0.0571889,-0.0163893 -0.114339,-0.04911 -0.163391,-0.0817343 -0.138904,-0.0980079 -0.212463,-0.228775 -0.212463,-0.375835 0,-0.122573 0.0327207,-0.22058 0.0981236,-0.302276 0.0735011,-0.0817343 0.155139,-0.114416 0.253263,-0.114416 0.00811751,0 0.0163507,0 0.0244682,0l0 0zm0 -2.62263l0 1.24188 -0.155178 0.571928c-0.0163314,0.0408382 -0.0163314,0.0735204 -0.0245646,0.0898711 0,0.0245068 0,0.0408382 0,0.0571889 0,0.0408575 0,0.0654029 0.0163507,0.0898711 0.0163314,0.0163314 0.0326821,0.0245068 0.0654029,0.0245068 0.0244682,0 0.0571504,-0.0162929 0.0979886,-0.048975l0 0.261399c-0.0408382,0.0326629 -0.0735204,0.0653836 -0.114339,0.0980272 -0.155274,0.114378 -0.318665,0.1798 -0.482057,0.1798 -0.155274,0 -0.269594,-0.0409154 -0.343134,-0.122611 -0.081715,-0.0734818 -0.122553,-0.187898 -0.122553,-0.334958 0,-0.048975 0.00811751,-0.122553 0.0327207,-0.236931 0.0244297,-0.106222 0.0571504,-0.228756 0.0979886,-0.359484l0.228756 -0.776138c0.0244682,-0.0898904 0.0490714,-0.163449 0.0653065,-0.22058 0.0082332,-0.0572275 0.0164471,-0.098085 0.0164471,-0.12263 0,-0.0489172 -0.0164471,-0.0898711 -0.0572853,-0.114301 -0.0407997,-0.0245068 -0.0979886,-0.0408961 -0.179723,-0.0408961l-0.0490714 0 0 -0.13069c0.187995,-0.0164086 0.392186,-0.0326821 0.596493,-0.0653643 0.106222,-0.0082332 0.20423,-0.0245068 0.310452,-0.0409154l0 0zm0 1.24188l0.359465 -1.29907c-0.122476,0.0164086 -0.245029,0.0409154 -0.359465,0.0571889l0 1.24188zm0 1.04579c0.114436,-0.122553 0.245106,-0.285945 0.367698,-0.482018l-0.130709 -0.0980657c-0.106183,0.155197 -0.179704,0.253282 -0.220658,0.302334 -0.00811751,0.00813679 -0.0163314,0.00813679 -0.0163314,0.0163507l0 0.261399zm0 1.20922l0 -0.874262c0.0817343,0 0.155235,0.0326821 0.212424,0.0898711 0.0654029,0.0571889 0.098085,0.130806 0.098085,0.220677 0,0.0570925 -0.0245646,0.122495 -0.0654029,0.196016 -0.0490329,0.0735782 -0.0735011,0.114378 -0.0735011,0.138904 0,0.0245454 0.0163507,0.0408382 0.0408189,0.0571889 0.01637,0.00817536 0.0490521,0.0162929 0.0817536,0.0162929 0.0898518,0 0.163391,-0.0489365 0.220561,-0.138808 0.0571504,-0.098085 0.122553,-0.277827 0.187956,-0.555577l0.490155 -1.9772c0.0163507,-0.0653257 0.0327207,-0.122553 0.0408382,-0.171644 0.00821392,-0.0489172 0.0163507,-0.0898132 0.0163507,-0.11432 0,-0.0490136 -0.0244682,-0.0898711 -0.0571889,-0.106164 -0.0407997,-0.0245068 -0.0898711,-0.0408961 -0.163391,-0.0408961l-0.0571504 0 0 -0.13069c0.179742,-0.0164086 0.383933,-0.0326821 0.596358,-0.0653643 0.204345,-0.0245068 0.424887,-0.0571889 0.661799,-0.0981043l-0.580045 2.24682c-0.130786,0.490194 -0.294178,0.841599 -0.490252,1.05395 -0.18786,0.212424 -0.449355,0.318588 -0.768002,0.318588 -0.14706,0 -0.277731,-0.0163314 -0.392167,-0.0652679l0 0zm3.82364 -3.57038l0 0.522914c-0.0489557,0.0735589 -0.0979886,0.155235 -0.155274,0.253224 -0.114339,0.204249 -0.20421,0.416712 -0.269613,0.612747 -0.0652872,0.204249 -0.0979886,0.375854 -0.0979886,0.514758 0,0.0898711 0.0245839,0.155216 0.0571504,0.204191 0.0328364,0.0490714 0.0816765,0.0735782 0.147156,0.0735782 0.0898711,0 0.179742,-0.048975 0.277731,-0.155293 0.00811751,-0.016235 0.0246996,-0.032605 0.0408382,-0.0489557l0 0.302334c-0.0654029,0.0734625 -0.130709,0.130709 -0.195977,0.179684 -0.163507,0.114378 -0.343269,0.171625 -0.53109,0.171625 -0.204345,0 -0.367621,-0.0572468 -0.482057,-0.179781 -0.114436,-0.122553 -0.171625,-0.285945 -0.171625,-0.490213 0,-0.245087 0.0571889,-0.498369 0.163507,-0.767963 0.114436,-0.261476 0.269594,-0.498408 0.457454,-0.702657 0.147041,-0.163353 0.302315,-0.285925 0.46561,-0.375797 0.0982007,-0.0571889 0.196189,-0.0899289 0.294178,-0.114397l0 0zm1.44611 3.05562l0 0.506583c-0.0735204,-0.0653836 -0.114224,-0.147137 -0.114224,-0.253301 0,-0.0980272 0.0407033,-0.187898 0.114224,-0.253282zm0 -2.98214l0 0.310509 -0.359465 1.25008 0 0.00811751c-0.0654029,0.23695 -0.106222,0.375816 -0.106222,0.416673 0,0.0408961 0.00811751,0.0653643 0.0245646,0.0898711 0.0162543,0.0245068 0.0327207,0.0326821 0.0572853,0.0326821 0.073424,0 0.171413,-0.0816572 0.285733,-0.245145 0.0327014,-0.048975 0.0572661,-0.0898132 0.0736361,-0.114339l0.0244682 0.0163314 0 0.253282c-0.114224,0.155235 -0.220542,0.277808 -0.3349,0.36764 -0.147156,0.114378 -0.302411,0.171625 -0.482134,0.171625 -0.138827,0 -0.245049,-0.03274 -0.318453,-0.0898711 -0.0737132,-0.0572468 -0.114551,-0.147118 -0.114551,-0.261438 0,-0.0408961 0,-0.0817536 0.0082332,-0.138943 0.00811751,-0.0490136 0.0244875,-0.122553 0.0407997,-0.204288 -0.0815029,0.130767 -0.163391,0.245145 -0.245106,0.34323l0 -0.302334c0.081715,-0.0980272 0.15537,-0.228775 0.228794,-0.38403 0.0898325,-0.212386 0.155235,-0.416673 0.212424,-0.612747 0.0490329,-0.196035 0.08185,-0.343134 0.08185,-0.449336 0,-0.0735397 -0.0165821,-0.130729 -0.0573818,-0.179704 -0.0327014,-0.0408961 -0.0735204,-0.0654414 -0.130574,-0.0654414 -0.0816765,0 -0.15539,0.0409346 -0.228698,0.114416 -0.0326821,0.03274 -0.0737325,0.0735397 -0.106415,0.122592l0 -0.522914c0.0571504,-0.00821392 0.114436,-0.0163893 0.171605,-0.0163893 0.13902,0 0.253263,0.0326821 0.334881,0.0981043 0.0818885,0.0653643 0.130806,0.163372 0.163391,0.302276l0.0817536 -0.310509 0.694481 0zm0 0.310509l0.0898711 -0.310509 -0.0898711 0 0 0.310509zm0 1.70755c0.0327978,-0.0490329 0.0735204,-0.106145 0.106222,-0.171528l-0.106222 -0.0817536 0 0.253282zm0 1.47066l0 -0.506583c0.0735204,-0.0653836 0.171509,-0.098085 0.285945,-0.098085 0.0898711,0 0.18786,0.0327014 0.294313,0.098085 0.105971,0.0735397 0.171509,0.106222 0.204095,0.106222 0.06548,0 0.138904,-0.0490329 0.212424,-0.155178 0.0817536,-0.0981043 0.122688,-0.196131 0.122688,-0.285983 0,-0.0653643 0,-0.147118 -0.0164471,-0.253282 -0.00825248,-0.0980464 -0.0327207,-0.228794 -0.0571889,-0.375854 -0.0490521,-0.318665 -0.106203,-0.612747 -0.163488,-0.874243 -0.0489557,-0.269575 -0.0979886,-0.473824 -0.138923,-0.620826 -0.0406068,-0.130825 -0.0816186,-0.220696 -0.122457,-0.253282 -0.0327207,-0.0408575 -0.0978922,-0.0654221 -0.187744,-0.0654221l-0.00834889 0c-0.0243718,0.00813679 -0.0490521,0.00813679 -0.0654029,0.00813679l0 -0.147002c0.220793,-0.0163314 0.441238,-0.0490136 0.66178,-0.0816957 0.228794,-0.03274 0.351348,-0.0409154 0.359465,-0.0409154 0.0982007,0 0.212463,0.367698 0.351386,1.11937 0.0571504,0.302276 0.106318,0.54744 0.147021,0.727106 0.171625,-0.326764 0.285945,-0.57187 0.343134,-0.71893 0.0654029,-0.147099 0.0982007,-0.261438 0.0982007,-0.326841 0,-0.0571889 -0.0571889,-0.122553 -0.15539,-0.196074 -0.106203,-0.0816957 -0.155139,-0.163411 -0.155139,-0.261438 0,-0.114397 0.0325857,-0.204288 0.106106,-0.269594 0.0736361,-0.0735975 0.171625,-0.10628 0.28606,-0.10628 0.122476,0 0.212347,0.0326821 0.277827,0.10628 0.0654029,0.0653065 0.106106,0.163334 0.106106,0.285887 0,0.147137 -0.0817536,0.400361 -0.236893,0.743514 -0.155274,0.335016 -0.359465,0.718969 -0.629078,1.15197 -0.30243,0.49029 -0.580142,0.841541 -0.825287,1.07032 -0.244933,0.220619 -0.490155,0.334997 -0.718949,0.334997 -0.155062,0 -0.269594,-0.0326821 -0.359465,-0.098085 -0.00811751,-0.00811751 -0.00811751,-0.00811751 -0.0163507,-0.0162929l0 0zm4.33016 -3.5622l0 0.522914c-0.0490714,0.0735589 -0.0979886,0.155235 -0.155178,0.253224 -0.114436,0.204249 -0.204191,0.416712 -0.26971,0.612747 -0.0652872,0.204249 -0.0979886,0.375854 -0.0979886,0.514758 0,0.0898711 0.0244682,0.155216 0.0571889,0.204191 0.0326821,0.0490714 0.081715,0.0735782 0.147021,0.0735782 0.0898711,0 0.179723,-0.048975 0.277827,-0.155293 0.0164471,-0.016235 0.0244875,-0.032605 0.0408382,-0.0489557l0 0.302334c-0.0653065,0.0734625 -0.130709,0.130709 -0.196112,0.179684 -0.163256,0.114378 -0.342999,0.171625 -0.530955,0.171625 -0.204345,0 -0.359504,-0.0572468 -0.482057,-0.179781 -0.114224,-0.122553 -0.171509,-0.285945 -0.171509,-0.490213 0,-0.245087 0.0572853,-0.498369 0.163276,-0.767963 0.114551,-0.261476 0.26971,-0.498408 0.457569,-0.702657 0.147041,-0.163353 0.302295,-0.285925 0.465687,-0.375797 0.0979886,-0.0571889 0.196112,-0.0899289 0.294101,-0.114397l0 0zm0 2.2795l0 -0.302334c0.081715,-0.0980272 0.155351,-0.228775 0.228775,-0.38403 0.0898518,-0.212386 0.155255,-0.416673 0.212444,-0.612747 0.0490329,-0.196035 0.0817536,-0.343134 0.0817536,-0.449336 0,-0.0735397 -0.0162736,-0.130729 -0.0572853,-0.179704 -0.0325857,-0.0408961 -0.073424,-0.0654414 -0.130574,-0.0654414 -0.0817536,0 -0.155409,0.0409346 -0.22891,0.114416 -0.0326821,0.03274 -0.0734047,0.0735397 -0.106203,0.122592l0 -0.522914c0.0571504,-0.00821392 0.114436,-0.0163893 0.171586,-0.0163893 0.138923,0 0.253398,0.0326821 0.335113,0.0981043 0.0815415,0.0653643 0.130594,0.163372 0.163295,0.302276l0.0816379 -0.310509 0.784449 0 -0.449433 1.56059 0 0.00811751c-0.0654029,0.23695 -0.106222,0.375816 -0.106222,0.416673 0,0.0408961 0.00811751,0.0653643 0.0244682,0.0898711 0.0163507,0.0245068 0.0326821,0.0326821 0.0572853,0.0326821 0.0735204,0 0.171586,-0.0816572 0.285945,-0.245145 0.0325857,-0.048975 0.0571504,-0.0898132 0.0735204,-0.114339l0.13069 0.098085c-0.14706,0.245068 -0.294178,0.424829 -0.441238,0.539169 -0.147041,0.114378 -0.302083,0.171625 -0.481806,0.171625 -0.139039,0 -0.245261,-0.03274 -0.318781,-0.0898711 -0.0736168,-0.0572468 -0.114436,-0.147118 -0.114436,-0.261438 0,-0.0408961 0.0082332,-0.0817536 0.0082332,-0.138943 0.00821392,-0.0490136 0.0244682,-0.122553 0.0407997,-0.204288 -0.0816379,0.130767 -0.163391,0.245145 -0.245106,0.34323z"/>
   <path id="_120617640" class="fil1" d="M22.9575 10.7957c-0.01637,0.0326629 -0.0408382,0.0571889 -0.0571697,0.0817343 -0.0327014,0.0653257 -0.0490714,0.130729 -0.0490714,0.204268 0,0.0979886 0.0327207,0.171567 0.106241,0.228736l0 -0.514739zm0 -0.482038c-0.00811751,0 -0.0244875,0.00819464 -0.0490521,0.0163507 -0.0327014,0.00821392 -0.0653065,0.0245068 -0.0898711,0.0490136 -0.0327014,0.0163314 -0.0571504,0.0408961 -0.0979886,0.0654029 -0.0898904,0.0735397 -0.155274,0.130671 -0.196093,0.171586 -0.0408961,0.032605 -0.122592,0.106203 -0.236931,0.204191 -0.0654029,0.0572275 -0.0980657,0.098085 -0.114455,0.122553 -0.0163122,0.0246032 -0.0245068,0.0571889 -0.048975,0.114378l-0.0408382 0.155255c-0.00817536,0.00811751 -0.00817536,0.0163507 -0.00817536,0.0245261 0,0.00815608 0,0.0163507 0,0.0244682 0,0.00819464 0,0.0245454 0.00817536,0.0327207 0.00811751,0.00815608 0.0163314,0.0163314 0.0408382,0.0245068 0.0162929,0.00815608 0.0408575,0.00815608 0.0735782,0.0163314 0.0326629,0.00819464 0.0571311,0.00819464 0.0816379,0.00819464l-0.01637 0.065345 -0.865952 0 0.0244489 -0.065345c0.0163507,0 0.0490521,0 0.0898711,-0.00819464 0.0327207,0 0.0654029,-0.00817536 0.0817343,-0.00817536 0.0244489,-0.00815608 0.0489365,-0.0245068 0.0653257,-0.0326629 0.0163122,-0.0163314 0.0245454,-0.0327207 0.0326821,-0.0571889l0.0571889 -0.212366c0.00821392,-0.0082332 0.00821392,-0.0246032 0.0163122,-0.0409154 0,-0.00819464 0.0082332,-0.0162736 0.0082332,-0.0245068 0,-0.01637 -0.0082332,-0.0326821 -0.0163314,-0.0490521 -0.00821392,-0.0163314 -0.0163507,-0.0408189 -0.0326821,-0.0652679 -0.0408575,-0.0981236 -0.0735397,-0.163507 -0.0980464,-0.212463 -0.0245454,-0.0490714 -0.0490136,-0.114378 -0.0898711,-0.187918 -0.0163314,-0.0327014 -0.0326821,-0.0572661 -0.0490136,-0.0735589 -0.0245454,-0.0163507 -0.0408575,-0.0326436 -0.0654029,-0.0490136 -0.0163314,-0.00819464 -0.0408382,-0.0163507 -0.0653257,-0.0163507 -0.0245454,-0.00815608 -0.0490136,-0.00815608 -0.0735589,-0.00815608l0.0163314 -0.0653643 0.866067 0 -0.0163893 0.0653643c-0.0816572,0 -0.130632,0.00815608 -0.171528,0.00815608 -0.03274,0.00815608 -0.0571889,0.0245068 -0.0571889,0.0408961 0,0.00811751 0.00821392,0.0163314 0.0163507,0.0407611 0,0.01637 0.0163314,0.0572661 0.0326243,0.10626 0.0163893,0.0326629 0.0408768,0.0816765 0.0653643,0.138923 0.0327207,0.0653643 0.0654029,0.130671 0.0980657,0.20421 0.0898711,-0.0816957 0.171567,-0.155255 0.253282,-0.228717 0.0735204,-0.0654029 0.122553,-0.114416 0.155235,-0.138981 0.0489943,-0.0489365 0.0816765,-0.0816957 0.0898904,-0.0979886 0.00813679,-0.00813679 0.00813679,-0.0163507 0.00813679,-0.0244682 0,-0.0163893 -0.0163507,-0.0245454 -0.0490329,-0.03274 -0.032605,-0.00815608 -0.0735204,-0.0163122 -0.122534,-0.0163122l0.0163314 -0.0653643 0.473901 0 0 0.0816765zm0.522837 0.261438l0 0.0735204c-0.0163122,0.0082332 -0.0407997,0.01637 -0.0653836,0.0326821 -0.0489172,0.0327014 -0.0816379,0.081715 -0.11432,0.14706 -0.0244875,0.0572082 -0.0408382,0.114397 -0.0490714,0.1798 -0.0163314,0.065345 -0.0163314,0.122495 -0.0163314,0.171528 0,0.0653836 0.00821392,0.114416 0.0409154,0.138923 0.0244875,0.0326243 0.0735204,0.0490329 0.122573,0.0490329 0.0325857,0 0.0571889,-0.00817536 0.0816186,-0.0164086l0 0.0735782c-0.0326821,0.00821392 -0.0735011,0.00821392 -0.114301,0.00821392 -0.155274,0 -0.277866,-0.0327014 -0.375835,-0.098085 -0.0082332,-0.00817536 -0.0163507,-0.0163314 -0.0327014,-0.0245068l0 -0.514739c0.0327014,-0.0245261 0.0571504,-0.0572082 0.0979886,-0.0816957 0.0654029,-0.0408575 0.138904,-0.0816572 0.237028,-0.106164 0.0571504,-0.0164086 0.122438,-0.03274 0.187821,-0.03274zm-0.408498 -0.343114l-0.0163507 0.0653643c-0.0244682,0 -0.0489557,0 -0.0735204,0.00815608 -0.00811751,0 -0.0163507,0 -0.0244682,0.00815608l0 -0.0816765 0.114339 0zm3.83997 0.506506c0,0.0245261 -0.00811751,0.0490714 -0.0163314,0.0736361 -0.00802111,0.0244297 -0.0244682,0.0407611 -0.0408189,0.0571311 -0.0245839,0.0163122 -0.0409346,0.03274 -0.0654029,0.0408189 -0.0243525,0.00821392 -0.0571697,0.01637 -0.098085,0.01637 -0.0571889,0 -0.0978922,-0.00815608 -0.130574,-0.0327014 -0.0327207,-0.0163122 -0.0490714,-0.0408575 -0.0490714,-0.0653836 0,-0.0244875 0.00811751,-0.0489943 0.0163507,-0.065345 0.0082332,-0.0163314 0.0244682,-0.0407997 0.0408382,-0.0735204 -0.0490714,0.0163314 -0.0898904,0.0327207 -0.122476,0.0571889 -0.0327207,0.0244875 -0.0654029,0.0490136 -0.0981043,0.0735204l-0.171509 0.588279 -0.359581 0 0.14706 -0.506487c0.00811751,-0.0164278 0.00811751,-0.0409539 0.0163314,-0.0654414 0.00811751,-0.0244297 0.00811751,-0.0408575 0.00811751,-0.0571889 0,-0.0326821 -0.00811751,-0.0571504 -0.0244489,-0.0653643 -0.0163507,-0.0162929 -0.0408382,-0.0162929 -0.0898711,-0.0162929 -0.0244875,0 -0.0490714,0 -0.0735204,0.00811751 -0.0163507,0 -0.0327207,0.00817536 -0.0490714,0.00817536l0.0163507 -0.0734818c0.0571697,-0.0163893 0.114359,-0.0326821 0.163507,-0.0408575 0.057054,-0.0163893 0.106125,-0.0245646 0.155158,-0.0245646 0.0816379,0 0.147156,0.0163314 0.18786,0.0409154 0.0407997,0.0245068 0.0736168,0.0571311 0.08185,0.106203l0.00802111 0c0.0735204,-0.0572275 0.13902,-0.098085 0.187956,-0.122553 0.0490521,-0.0163893 0.098085,-0.0327207 0.15537,-0.0327207 0.0651715,0 0.114243,0.0163314 0.146944,0.0490714 0.0408189,0.0245068 0.0571504,0.0652872 0.0571504,0.122476zm-1.8464 0.53109l-0.00825248 0c-0.0735204,0.0571889 -0.147021,0.0980657 -0.220542,0.122553 -0.0654029,0.0244682 -0.147041,0.0326821 -0.236912,0.0326821 -0.0817536,0 -0.138904,-0.0163314 -0.187956,-0.0490136 -0.0408189,-0.0326629 -0.0653836,-0.0735397 -0.0653836,-0.122534 0,-0.0163507 0,-0.0327593 0.00819464,-0.0490329 0,-0.0163314 0.00811751,-0.0408382 0.01637,-0.0735782l0.0816379 -0.228659c0.0082332,-0.0164278 0.0082332,-0.0409539 0.0163507,-0.0654414 0.0082332,-0.0244297 0.0163507,-0.0489943 0.0163507,-0.0571889 0,-0.0326821 -0.00811751,-0.0571504 -0.0244682,-0.0653643 -0.01637,-0.0162929 -0.0490521,-0.0162929 -0.0981236,-0.0162929 -0.0244682,0 -0.0490329,0 -0.0735011,0.00811751 -0.0244875,0 -0.0407997,0.00817536 -0.0571697,0.0163893l0.01637 -0.0816957c0.0652679,-0.0163893 0.122553,-0.0326821 0.171586,-0.0408575 0.0571889,-0.0163893 0.106106,-0.0245646 0.155178,-0.0245646 0.0817343,0 0.147041,0.0163314 0.196074,0.0490329 0.0490521,0.0327207 0.0735204,0.0735782 0.0735204,0.122553 0,0.00817536 0,0.0326821 -0.00811751,0.0571889 0,0.0244875 -0.00811751,0.0490136 -0.0163507,0.0735589l-0.0816379 0.2206c-0.0082332,0.0163507 -0.0082332,0.0408382 -0.0164471,0.0571697 0,0.0244875 -0.00811751,0.0408575 -0.00811751,0.0490329 0,0.0245068 0.00811751,0.0490329 0.0245646,0.065345 0.016235,0.0163507 0.0489557,0.0245261 0.0816379,0.0245261 0.0327014,0 0.0653836,-0.0163314 0.114339,-0.0327207 0.0490329,-0.0163122 0.098085,-0.0408768 0.138923,-0.0734818l0.179742 -0.596473 0.351251 -0.00815608 0.00821392 0.00815608 -0.155274 0.506602c0,0.0163507 -0.00811751,0.0408382 -0.016235,0.0653643 -0.00821392,0.0245068 -0.00821392,0.0489943 -0.00821392,0.0571118 0,0.0327593 0.00821392,0.0572661 0.0244489,0.0654221 0.0163507,0.00817536 0.0490714,0.0163314 0.0981043,0.0163314 0.0244682,0 0.0489557,0 0.0735204,-0.00815608 0.0326821,-0.00817536 0.0490329,-0.00817536 0.0571504,-0.0163314l-0.0163122 0.0734625c-0.0735589,0.0245646 -0.130709,0.0408961 -0.171548,0.0490907 -0.0490329,0.0162736 -0.098085,0.0162736 -0.155235,0.0162736 -0.0735204,0 -0.138923,-0.00811751 -0.18786,-0.0407997 -0.0490521,-0.0245646 -0.0817536,-0.0571889 -0.0898711,-0.106222l0 0zm-1.58507 0.155235l0 -0.0735782c0.0327207,-0.00809823 0.0571889,-0.0244682 0.0735589,-0.0407997 0.0490329,-0.0326629 0.081715,-0.0816957 0.106203,-0.130748 0.0244682,-0.0571889 0.0408189,-0.114378 0.0571889,-0.179742 0.0163122,-0.0652679 0.0163122,-0.122515 0.0163122,-0.179742 0,-0.065345 -0.00811751,-0.114378 -0.0407997,-0.14706 -0.0244682,-0.0245261 -0.0735011,-0.0407997 -0.122573,-0.0407997 -0.0327014,0 -0.0571697,0 -0.0898904,0.0162736l0 -0.0735204c0.0408382,-0.00815608 0.0735589,-0.00815608 0.106241,-0.00815608 0.163391,0 0.294062,0.0327207 0.392167,0.0899097 0.0898711,0.0653643 0.138923,0.147021 0.138923,0.253224 0,0.0735589 -0.01637,0.138923 -0.0490521,0.196112 -0.0327014,0.0653836 -0.0898711,0.122553 -0.147137,0.171586 -0.0734047,0.0489943 -0.155158,0.0816957 -0.245029,0.114359 -0.0571504,0.0163507 -0.122553,0.0244682 -0.196112,0.0326821l0 0zm5.63758 -0.318627l-0.00832961 0.0244682c-0.00821392,0.0163507 -0.01637,0.0409154 -0.01637,0.0654029 -0.00819464,0.0163314 -0.00819464,0.0408575 -0.00819464,0.0572082 0,0.0326629 0.00819464,0.0571697 0.0328942,0.0816765l0 -0.228756zm0 -0.874204l0 0.0980272 -0.0737325 0.220638 -0.0816379 0c-0.0082332,-0.0572275 -0.0325857,-0.106222 -0.0653836,-0.155293 -0.0408382,-0.0489557 -0.0816379,-0.0735011 -0.122573,-0.0816957 -0.0243718,0 -0.0571889,-0.00815608 -0.0898711,-0.00815608 -0.0327014,0 -0.0653836,0 -0.0979886,0l-0.237028 0 -0.147021 0.465668 0.155274 0c0.0409154,0 0.0816186,-0.00815608 0.114339,-0.00815608 0.0326821,-0.00815608 0.0654029,-0.0245261 0.0982007,-0.0490136 0.0243525,-0.00817536 0.0488401,-0.0327014 0.0734047,-0.0653836 0.0327014,-0.032605 0.0491486,-0.0571889 0.0571889,-0.0816765l0.0818307 0 -0.147021 0.490194 -0.0818885 0 0 -0.0245068c0,-0.0326821 0,-0.0571889 -0.00798254,-0.081715 -0.00832961,-0.0244682 -0.0165821,-0.0408382 -0.0246996,-0.0571697 -0.0245839,-0.0163122 -0.0408189,-0.0327014 -0.0735011,-0.0408575 -0.0244875,-0.00807895 -0.0654029,-0.00807895 -0.106241,-0.00807895l-0.155274 0 -0.114301 0.3757c-0.00825248,0.0082332 -0.00825248,0.0164086 -0.00825248,0.0245646 0,0.00819464 -0.00811751,0.0163122 -0.00811751,0.0163122 0,0.0245454 0.01637,0.0490521 0.0409346,0.0572275 0.0325857,0.00815608 0.0815415,0.0163314 0.155139,0.0245261l-0.0163507 0.065345 -0.833173 0 0.0161386 -0.065345c0.0165628,0 0.0491678,0 0.0817536,-0.00819464 0.0326821,0 0.0652679,-0.00817536 0.08185,-0.00817536 0.0244682,-0.00815608 0.0488208,-0.0163314 0.0651715,-0.0326629 0.01637,-0.0163314 0.0246996,-0.0327207 0.0327207,-0.0490329l0.245106 -0.816977c0,-0.01637 0.00811751,-0.0245646 0.00811751,-0.03274 0,-0.00819464 0,-0.00819464 0,-0.0163314 0,-0.0245068 -0.0163122,-0.0407997 -0.0407997,-0.0490136 -0.0327014,-0.0163507 -0.0817536,-0.0245068 -0.155255,-0.0326629l0.0163507 -0.0653643 1.36457 0zm4.43617 1.04579l-0.0243911 0.0734625c-0.0735975,0.0245646 -0.130786,0.0408961 -0.171586,0.0490907 -0.0409539,0.0162736 -0.0979886,0.0162736 -0.147156,0.0162736 -0.0898711,0 -0.155274,-0.0162736 -0.20421,-0.0489557 -0.0490521,-0.0327014 -0.0735204,-0.0735397 -0.0735204,-0.122573 0,-0.00815608 0,-0.0245646 0.00811751,-0.0490136 0,-0.01637 0,-0.0408575 0.0163507,-0.0735589l0.0735204 -0.220503c0.0082332,-0.0245646 0.0163507,-0.04911 0.0244682,-0.0654414 0,-0.0163507 0,-0.0326821 0,-0.0489943 0,-0.0245454 -0.00811751,-0.0408768 -0.0244682,-0.0572275 -0.0161386,-0.0163314 -0.0407997,-0.0245068 -0.0816379,-0.0245068 -0.0243525,0 -0.0654029,0.00817536 -0.106318,0.0245068 -0.0489557,0.0163507 -0.0979886,0.0408382 -0.155062,0.0817921l-0.179742 0.596358 -0.359581 0 0.15539 -0.506487c0.00800182,-0.0164278 0.00800182,-0.0409539 0.016235,-0.0654414 0.00811751,-0.0244297 0.00811751,-0.0408575 0.00811751,-0.0571889 0,-0.0326821 -0.00811751,-0.0571504 -0.0243525,-0.0653643 -0.0164857,-0.0162929 -0.0491678,-0.0162929 -0.0900832,-0.0162929 -0.0244682,0 -0.0489557,0 -0.0735204,0.00811751 -0.0244682,0 -0.0408382,0.00817536 -0.0653065,0.00817536l0.0244682 -0.0734818c0.0654029,-0.0163893 0.114359,-0.0326821 0.171644,-0.0408575 0.0571504,-0.0163893 0.106183,-0.0245646 0.155139,-0.0245646 0.08185,0 0.147253,0.0163314 0.187956,0.0409154 0.0409154,0.0245068 0.0736361,0.0571311 0.0816572,0.106203l0.00821392 0c0.0736361,-0.0490714 0.147041,-0.0898711 0.220793,-0.114378 0.0815222,-0.0245646 0.155158,-0.0408961 0.244894,-0.0408961 0.0817536,0 0.138923,0.0163314 0.187995,0.0490714 0.0489172,0.032605 0.0652679,0.0734818 0.0652679,0.122476 0,0.01637 0,0.0326821 0,0.0572082 0,0.0245068 -0.00811751,0.04911 -0.0163507,0.0735589l-0.0815222 0.228775c-0.00834889,0.0163507 -0.0164664,0.0408382 -0.0245839,0.0653643 -0.00821392,0.0245068 -0.00821392,0.0408382 -0.00821392,0.0571118 0,0.0327593 0.00821392,0.0490714 0.0244489,0.0654221 0.0246032,0.00817536 0.0571889,0.0163314 0.0981043,0.0163314 0.0245646,0 0.0489557,0 0.0735204,-0.00815608 0.0327207,-0.00817536 0.0490329,-0.00817536 0.0653065,-0.0163314zm-1.51965 -0.996777c0,0.0408575 -0.0244875,0.0735204 -0.0652872,0.106164 -0.0408189,0.0327593 -0.0898711,0.0409346 -0.147156,0.0409346 -0.0651715,0 -0.114339,-0.00817536 -0.155043,-0.0409346 -0.0410503,-0.0326436 -0.0655186,-0.0653065 -0.0655186,-0.106164 0,-0.0408961 0.0244682,-0.0735397 0.0655186,-0.10626 0.0407033,-0.0326243 0.0898711,-0.048975 0.155043,-0.048975 0.0572853,0 0.106337,0.0163507 0.147156,0.048975 0.0407997,0.0327207 0.0652872,0.0653643 0.0652872,0.10626l0 0zm-0.0244875 1.00493l-0.0244682 0.0735397c-0.0735975,0.0245068 -0.130786,0.0408575 -0.171509,0.0490136 -0.0409154,0.0163314 -0.0899675,0.0163314 -0.147021,0.0163314 -0.0898711,0 -0.15537,-0.0163314 -0.20423,-0.0490136 -0.0491293,-0.0326629 -0.0737325,-0.0735397 -0.0737325,-0.122534 0,-0.0163507 0,-0.0327593 0.00832961,-0.0572082 0,-0.01637 0.00804039,-0.0408575 0.0162736,-0.0654029l0.0897554 -0.245087c0.0082332,-0.0163122 0.0165628,-0.0407611 0.0165628,-0.0653643 0.00800182,-0.0163314 0.00800182,-0.0326436 0.00800182,-0.0571889 0,-0.0245261 -0.00800182,-0.0490136 -0.0245646,-0.0571889 -0.0161579,-0.0163314 -0.0488401,-0.0245261 -0.0979886,-0.0245261 -0.01637,0 -0.0408382,0.00819464 -0.0651908,0.00819464 -0.0246803,0.00821392 -0.0491678,0.0163314 -0.06548,0.0163314l0.0244297 -0.0734818c0.0571889,-0.0163314 0.114474,-0.0326821 0.171625,-0.0409154 0.0491678,-0.0163314 0.0980079,-0.0244875 0.147041,-0.0244875 0.0898711,0 0.155274,0.0163314 0.20421,0.0490714 0.0409346,0.032605 0.0654029,0.0734818 0.0654029,0.122476 0,0.00819464 0,0.0326821 0,0.0572082 -0.00811751,0.0245068 -0.00811751,0.04911 -0.0244682,0.0735589l-0.0817536 0.236931c-0.00811751,0.0163122 -0.01637,0.0408189 -0.0243525,0.0653836 -0.00832961,0.0244875 -0.00832961,0.0408189 -0.00832961,0.0571697 0,0.0326436 0.00832961,0.0490329 0.0326821,0.0653643 0.0163507,0.00815608 0.0490329,0.0163314 0.0981043,0.0163314 0.0163314,0 0.0407997,0 0.0735204,-0.00817536 0.0244682,-0.00815608 0.0409154,-0.00815608 0.0571504,-0.0163314l0 0zm-1.39694 -0.0163507l0 0c-0.0899868,0.0571889 -0.163507,0.0980657 -0.22891,0.122553 -0.0735204,0.0163507 -0.147021,0.0326821 -0.228775,0.0326821 -0.0816379,0 -0.147041,-0.0163314 -0.187879,-0.0490136 -0.0407997,-0.0408575 -0.0653836,-0.0816957 -0.0653836,-0.122534 0,-0.0245261 0,-0.0408768 0,-0.0572082 0.00811751,-0.01637 0.00811751,-0.0408575 0.0245839,-0.0735589l0.0816379 -0.220503c0,-0.0164278 0.00832961,-0.0409539 0.0163507,-0.0654414 0.00811751,-0.0244297 0.00811751,-0.0489943 0.00811751,-0.0571889 0,-0.0326821 -0.00811751,-0.0571504 -0.0244682,-0.0653643 -0.0163507,-0.0162929 -0.0490329,-0.0162929 -0.0898711,-0.0162929 -0.0244682,0 -0.0490329,0 -0.0735204,0.00811751 -0.0245839,0 -0.0490329,0.00817536 -0.0653836,0.0163893l0.0246803 -0.0816957c0.0571504,-0.0163893 0.114224,-0.0326821 0.171374,-0.0408575 0.0490714,-0.0163893 0.0981236,-0.0245646 0.147079,-0.0245646 0.0898325,0 0.155235,0.0163314 0.204307,0.0490329 0.0407997,0.0327207 0.0652679,0.0735782 0.0652679,0.122553 0,0.00817536 0,0.0326821 0,0.0571889 -0.00811751,0.0244875 -0.00811751,0.0490136 -0.0161386,0.0735589l-0.08185 0.212386c-0.00811751,0.01637 -0.0163507,0.0408382 -0.0163507,0.0653836 -0.00811751,0.01637 -0.00811751,0.0327014 -0.00811751,0.0490329 0,0.0245068 0.00811751,0.0408382 0.0244682,0.0571504 0.0163507,0.0163893 0.0490521,0.0245454 0.0898711,0.0245454 0.0327207,0 0.0654029,-0.00815608 0.114571,-0.0326629 0.0488208,-0.0163507 0.0978536,-0.0408768 0.138692,-0.0735782l0.163391 -0.588259 0.34323 -0.00815608 0.0164471 0.00815608 -0.187956 0.669955c-0.0328171,0.10626 -0.0736361,0.187956 -0.122553,0.253263 -0.0491678,0.0653643 -0.114359,0.114436 -0.179742,0.155255 -0.0655378,0.0326436 -0.138827,0.0572468 -0.212559,0.0735589 -0.0815415,0.0163122 -0.155274,0.0244875 -0.236912,0.0244875 -0.0898711,0 -0.155255,0 -0.212424,-0.00817536 -0.0570733,-0.0163122 -0.106222,-0.0245068 -0.138904,-0.0407997 -0.0244875,-0.0164278 -0.0490714,-0.0327014 -0.0571889,-0.0571889 -0.00800182,-0.01637 -0.0163314,-0.0327014 -0.0163314,-0.0490521 0,-0.0327207 0.0163314,-0.0653257 0.0490329,-0.0898711 0.0244875,-0.0245068 0.0652872,-0.0326821 0.122553,-0.0326821 0.032605,0 0.0735204,0.00817536 0.0980079,0.0244682 0.0327014,0.0163893 0.0653836,0.0327593 0.0817536,0.0572468 0.0244682,0.0163314 0.0491486,0.0408382 0.0652679,0.0653836 0.0163507,0.0326243 0.0327207,0.0489943 0.0409539,0.0652679 0.00832961,0 0.0244489,-0.00807895 0.0489172,-0.00807895 0.0165628,-0.00819464 0.0327207,-0.00819464 0.0492835,-0.01637 0.0161193,-0.00819464 0.0324701,-0.0245068 0.0488401,-0.0326821 0.0163507,-0.00813679 0.0327978,-0.0245068 0.0490329,-0.0408961 0.0325857,-0.0326243 0.0653065,-0.0816572 0.0979886,-0.138846 0.0244682,-0.0490714 0.0490329,-0.114436 0.0655186,-0.196093l0 0zm-1.49509 -0.939568l0.0242561 -0.0980272 -0.0242561 0 0 0.0980272zm0 1.00493l0 -0.228756 0.228563 -0.75167c0,-0.00811751 0,-0.0162929 0,-0.0245068 0.00832961,-0.00815608 0.00832961,-0.0163507 0.00832961,-0.0245068 0,-0.0163893 -0.00832961,-0.0326436 -0.0165242,-0.0408382 -0.00804039,-0.0163507 -0.0244875,-0.0245646 -0.0407225,-0.0326821 -0.0164664,-0.00817536 -0.0327978,-0.00817536 -0.0571889,-0.0163122 -0.0245646,0 -0.0491486,0 -0.08185,0l0.0245839 -0.0653836 0.571909 -0.0245261 0.00811751 0.0163507 -0.285848 0.964075c-0.00821392,0.0163122 -0.0164471,0.0408189 -0.0245646,0.0653836 0,0.0244875 -0.00811751,0.0408189 -0.00811751,0.0571697 0,0.0326436 0.00811751,0.0490329 0.0326821,0.0653643 0.0162543,0.00815608 0.0572853,0.0163314 0.106222,0.0163314 0.01637,0 0.0409346,0 0.0736361,-0.00817536 0.0324701,-0.00815608 0.0488401,-0.00815608 0.0651908,-0.0163314l-0.0244682 0.0735397c-0.073424,0.0245068 -0.130594,0.0408575 -0.179742,0.0490136 -0.0408382,0.0163314 -0.0980079,0.0163314 -0.155274,0.0163314 -0.0817536,0 -0.155274,-0.0163314 -0.204326,-0.0490136 -0.0163507,-0.00815608 -0.0325857,-0.0245646 -0.0406068,-0.0408575l0 0zm5.17969 0.228775l0 0.171548c-0.016235,0.00819464 -0.0327014,0.00819464 -0.0409154,0.0163893 -0.073424,0.00811751 -0.155062,0.0162929 -0.236912,0.0162929 -0.0898711,0 -0.163179,0 -0.220445,-0.0162929 -0.0571889,-0.00819464 -0.0981236,-0.0163893 -0.130806,-0.0326821 -0.0245839,-0.0164278 -0.0489365,-0.0327014 -0.0571889,-0.0571889 -0.00821392,-0.01637 -0.016235,-0.0327014 -0.016235,-0.0490521 0,-0.0327207 0.016235,-0.0653257 0.0407225,-0.0898711 0.0327014,-0.0245068 0.0736361,-0.0326821 0.122573,-0.0326821 0.0409346,0 0.0736168,0.00817536 0.106203,0.0244682 0.032605,0.0163893 0.0571889,0.0327593 0.0818885,0.0572468 0.0243525,0.0163314 0.0405876,0.0408382 0.0570347,0.0653836 0.0244682,0.0245068 0.0327978,0.0489943 0.0408189,0.0652679 0.032605,0 0.0735204,-0.00807895 0.106241,-0.0162736 0.0326821,-0.01637 0.0571504,-0.0326821 0.0898325,-0.0571889 0.0162736,-0.0163507 0.0327207,-0.0408575 0.0571889,-0.0653643l0 0zm0 -0.996777l0 0.0980464c-0.0244682,0.00815608 -0.0327014,0.0163122 -0.0490329,0.0245068 -0.0408382,0.0245068 -0.0815415,0.0571889 -0.106241,0.0980657 -0.0327014,0.0489943 -0.0571504,0.0980079 -0.0735011,0.147118 -0.01637,0.0571889 -0.0244875,0.122457 -0.0244875,0.179704 0,0.0244875 0,0.0490136 0.00811751,0.0735204 0.00825248,0.0163314 0.01637,0.0408382 0.0327207,0.0571697 0.0164471,0.0163122 0.0326821,0.0327014 0.0571504,0.0408575 0.0246996,0.00817536 0.0490521,0.0163314 0.08185,0.0163314 0.0243911,0 0.0489557,-0.00815608 0.073424,-0.0163314l0 0.081715c-0.016235,0.00815608 -0.0327014,0.0163314 -0.0490329,0.0163314 -0.0327207,0.0163507 -0.0653065,0.0245068 -0.0898711,0.0326243 -0.0327207,0 -0.0653065,0.00821392 -0.114359,0.00821392 -0.122553,0 -0.220658,-0.0326821 -0.285945,-0.0816765 -0.073424,-0.0572082 -0.106106,-0.138904 -0.106106,-0.23695 0,-0.0735589 0.016235,-0.138827 0.0571697,-0.204191 0.0326821,-0.0654414 0.0816186,-0.12263 0.138808,-0.171663 0.0571697,-0.0490329 0.13069,-0.0898132 0.204191,-0.122495 0.0817536,-0.0245646 0.155274,-0.0408961 0.245145,-0.0408961l0 0zm0 1.16832l0 -0.171548c0.00811751,-0.00817536 0.01637,-0.0326821 0.0244875,-0.0490714 0.0326821,-0.0407997 0.0572661,-0.11432 0.0735011,-0.196035l-0.00811751 0c-0.0163507,0.00815608 -0.0327014,0.0245261 -0.0571889,0.0326243 -0.0163122,0.0082332 -0.0245646,0.0164086 -0.0326821,0.0164086l0 -0.081715c0.00811751,0 0.0244875,-0.00815608 0.0407997,-0.0163507 0.0327207,-0.0163122 0.0655186,-0.0326629 0.0898711,-0.0490714l0.114474 -0.441142c0,-0.0163507 0,-0.0326821 -0.0082332,-0.0408768 0,-0.0162736 -0.00802111,-0.0326629 -0.0244682,-0.0407804 -0.01637,-0.0164086 -0.0327014,-0.0245646 -0.0489557,-0.0327207 -0.0245646,-0.00813679 -0.0490521,-0.01637 -0.0817343,-0.01637 -0.0325857,0 -0.0572661,0.0082332 -0.0817536,0.01637l0 -0.0980464 0.00811751 0c0.0654029,0 0.122553,0.00815608 0.179742,0.0163314 0.0490521,0.00815608 0.0898904,0.0245646 0.122573,0.0490714l0.335016 -0.0490714 0.0163122 0.00815608 -0.187821 0.669955c-0.0246032,0.10626 -0.0653065,0.187956 -0.114474,0.253263 -0.0571504,0.0653643 -0.11432,0.114436 -0.179723,0.155255 -0.0653065,0.0326436 -0.122573,0.0572468 -0.179742,0.0653643zm2.27952 -1.50328l0 0.0735204c-0.00811751,0 -0.00811751,0 -0.016235,0l-0.08185 0 -0.155158 0.522857 0.0654029 0c0.0733854,0 0.130574,-0.00815608 0.18784,-0.0244875l0 0.0981236c-0.0409346,0 -0.0817343,0 -0.122573,0l-0.155255 0 -0.098085 0.318511c0,0.0082332 -0.00811751,0.0164086 -0.00811751,0.0245646 0,0.00819464 0,0.0163122 0,0.0163122 0,0.0245454 0.0164471,0.0490521 0.0407997,0.0572275 0.0244682,0.00815608 0.0817536,0.0163314 0.15539,0.0245261l-0.0164857 0.065345 -0.841503 0 0.0244682 -0.065345c0.0164471,0 0.0409346,0 0.08185,-0.00819464 0.032605,0 0.0571889,-0.00817536 0.073424,-0.00817536 0.0326821,-0.00815608 0.0490521,-0.0163314 0.0654993,-0.0326629 0.0162543,-0.0163314 0.0243718,-0.0327207 0.0325857,-0.0490329l0.245029 -0.816977c0.0082332,-0.01637 0.0082332,-0.0245646 0.0082332,-0.03274 0.00811751,-0.00819464 0.00811751,-0.00819464 0.00811751,-0.0163314 0,-0.0245068 -0.0163507,-0.0407997 -0.0490329,-0.0490136 -0.0324893,-0.0163507 -0.0816379,-0.0245068 -0.146944,-0.0326629l0.016235 -0.0653643 0.686364 0zm0.669897 0.784333l0 0.196074c-0.0082332,-0.0327014 -0.0082332,-0.0653836 -0.0082332,-0.0980079 0,-0.0326821 0,-0.0653836 0.0082332,-0.0980657zm0 -0.604591l0 0.155216c-0.0082332,0.0327207 -0.0244682,0.0654029 -0.0490329,0.0980464 -0.0408382,0.0490136 -0.0979115,0.0980272 -0.179742,0.130709 -0.0735204,0.0408575 -0.155158,0.065345 -0.253263,0.0817343 -0.0571697,0.00813679 -0.122553,0.0163122 -0.18786,0.0245646l0 -0.0981236c0.00813679,0 0.00813679,0 0.0163507,0 0.0570733,-0.0245068 0.106106,-0.0490136 0.138827,-0.0735397 0.0326821,-0.0326243 0.0571504,-0.0734818 0.0735975,-0.11432 0.0162736,-0.0409154 0.0244875,-0.081715 0.0244875,-0.130786 0,-0.0571311 -0.0244875,-0.106203 -0.0654029,-0.138827 -0.0407997,-0.0245454 -0.106106,-0.0408961 -0.18786,-0.0408961l0 -0.0735204 0.14706 0c0.179704,0 0.310413,0.0245454 0.400284,0.0653643 0.0654029,0.0245068 0.106318,0.0653836 0.122553,0.114378l0 0zm0 0.155216l0 -0.155216c0.00825248,0.0244875 0.00825248,0.0408768 0.00825248,0.0653836 0,0.0326821 0,0.0571889 -0.00825248,0.0898325zm0.629078 0l0 0.0980464c-0.0163507,0.00815608 -0.0326821,0.0163122 -0.0488208,0.0245068 -0.0410503,0.0245068 -0.0737325,0.0653643 -0.106434,0.106203 -0.032605,0.0408575 -0.0489557,0.0898711 -0.0733083,0.14706 -0.0165821,0.0571889 -0.0246996,0.114378 -0.0246996,0.171625 0,0.0326243 0.00811751,0.0571889 0.00811751,0.0816765 0.00825248,0.0163314 0.0165821,0.0408575 0.0246032,0.0572082 0.0163314,0.0163122 0.0326821,0.0245068 0.0571504,0.0408382 0.0246996,0.00815608 0.0491678,0.00815608 0.08185,0.00815608 0.0244875,0 0.0488593,0 0.0815415,-0.00815608l0 0.0735397c-0.0163507,0.00815608 -0.0326821,0.0163314 -0.0488208,0.0163314 -0.0327207,0.0163507 -0.0654029,0.0245068 -0.0982007,0.0326243 -0.0327207,0.00821392 -0.0735204,0.0164278 -0.114224,0.0164278 -0.122688,0 -0.220793,-0.0327014 -0.286195,-0.0898904 -0.0407997,-0.0327014 -0.0652679,-0.0817536 -0.0816379,-0.130748l0 -0.196074c0.00825248,-0.0408768 0.0244875,-0.0816379 0.0408382,-0.11432 0.0326821,-0.0654414 0.081715,-0.12263 0.147118,-0.171663 0.0571889,-0.0490329 0.130709,-0.0898132 0.20423,-0.122495 0.0735011,-0.0245646 0.155351,-0.03274 0.236893,-0.0408961l0 0zm1.96097 0.171548c0,0.0245261 -0.00832961,0.0490714 -0.0164471,0.0736361 -0.00802111,0.0244297 -0.0244682,0.0407611 -0.0407033,0.0571311 -0.0246996,0.0163122 -0.0409346,0.03274 -0.0655186,0.0408189 -0.0243525,0.00821392 -0.0570347,0.01637 -0.0979886,0.01637 -0.0571697,0 -0.098085,-0.00815608 -0.130806,-0.0327014 -0.0324701,-0.0163122 -0.0407997,-0.0408575 -0.0407997,-0.0653836 0,-0.0244875 0,-0.0489943 0.00832961,-0.065345 0.00802111,-0.0163314 0.0244682,-0.0407997 0.0407225,-0.0735204 -0.0490521,0.0163314 -0.0898904,0.0327207 -0.122573,0.0571889 -0.0327014,0.0244875 -0.0653836,0.0490136 -0.0978922,0.0735204l-0.171721 0.588279 -0.359581 0 0.147156 -0.506487c0.00811751,-0.0164278 0.00811751,-0.0409539 0.0164471,-0.0654414 0.00802111,-0.0244297 0.0161386,-0.0408575 0.0161386,-0.0571889 0,-0.0326821 -0.00811751,-0.0571504 -0.0244682,-0.0653643 -0.0163507,-0.0162929 -0.0488401,-0.0162929 -0.0979886,-0.0162929 -0.0245646,0 -0.0490521,0 -0.073424,0.00811751 -0.0244489,0 -0.0410118,0.00817536 -0.0571697,0.00817536l0.0243525 -0.0734818c0.0571889,-0.0163893 0.114359,-0.0326821 0.163391,-0.0408575 0.0571889,-0.0163893 0.106357,-0.0245646 0.155178,-0.0245646 0.0817536,0 0.147156,0.0163314 0.187956,0.0409154 0.0409346,0.0245068 0.0737325,0.0571311 0.0898711,0.106203l0.00825248 0c0.0652679,-0.0572275 0.130671,-0.098085 0.179819,-0.122553 0.0489557,-0.0163893 0.106125,-0.0327207 0.163276,-0.0327207 0.0571889,0 0.106318,0.0163314 0.139039,0.0490714 0.0407033,0.0245068 0.0571504,0.0652872 0.0571504,0.122476zm-1.96097 0.629155l0 -0.0735397c0,-0.00817536 0.00832961,-0.00817536 0.01637,-0.00817536 0.0326821,-0.0163507 0.0653836,-0.0408575 0.0898711,-0.0571889l0.139 -0.449375c0,-0.0163507 0,-0.0245068 -0.00832961,-0.0408768 0,-0.0162736 -0.00811751,-0.0326629 -0.0244682,-0.0407804 -0.00821392,-0.0164086 -0.0244875,-0.0245646 -0.0490521,-0.0327207 -0.0244682,-0.00813679 -0.0490329,-0.01637 -0.0816379,-0.01637 -0.0245839,0 -0.0572661,0.0082332 -0.0817536,0.01637l0 -0.0980464c0.00832961,0 0.01637,0 0.0244875,0 0.0572661,0 0.114436,0.00815608 0.163469,0.0163314 0.0489557,0.0163893 0.0898711,0.03274 0.122688,0.0490714l0.334804 -0.0490714 0.0163507 0.00815608 -0.163391 0.506602c0,0.0163507 -0.00802111,0.0408382 -0.0163507,0.0653643 -0.00811751,0.0245068 -0.00811751,0.0489943 -0.00811751,0.0571118 0,0.0327593 0.00811751,0.0572661 0.0244682,0.0654221 0.0245646,0.0163314 0.0573818,0.0163314 0.0979886,0.0163314 0.0245646,0 0.0490521,0 0.0737325,-0.00815608 0.0325857,-0.00817536 0.0488208,-0.00817536 0.0654029,-0.0163314l-0.0246996 0.0734625c-0.0735011,0.0245646 -0.130574,0.0408961 -0.171625,0.0490907 -0.0488208,0.0162736 -0.0979886,0.0244875 -0.155139,0.0244875 -0.073424,0 -0.130806,-0.0163314 -0.179839,-0.0408382 -0.0408382,-0.0163314 -0.0735204,-0.0490329 -0.0898711,-0.081715l-0.00811751 0c-0.0244875,0.0163507 -0.0490714,0.0326821 -0.0735204,0.0408768 -0.0082332,0.00809823 -0.0243911,0.0163314 -0.0327207,0.0245068l0 0zm2.92506 -0.702657l-0.0164471 0.0490136c0,0 0.00811751,0 0.0164471,0l0 -0.0490136zm0 -0.0571504l0 0.0490136 -0.00832961 0.0326436 -0.293966 0 -0.139039 0.441161c0,0.0163507 -0.00811751,0.03274 -0.00811751,0.0572468 -0.0082332,0.0163314 -0.0082332,0.032605 -0.0082332,0.0408382 0,0.0326436 0.0082332,0.0490329 0.0327014,0.0653643 0.0244875,0.00815608 0.0571697,0.0163314 0.106241,0.0163314 0.0244489,0 0.0491293,0 0.0898325,-0.00817536 0.0408382,-0.00815608 0.0654029,-0.0163314 0.0818885,-0.0163314l-0.0246996 0.0735397c-0.0571889,0.0163314 -0.122573,0.0326629 -0.18786,0.0490136 -0.0654029,0.00811751 -0.122553,0.0163314 -0.179742,0.0163314 -0.0817536,0 -0.155274,-0.0163314 -0.204307,-0.0490136 -0.0490521,-0.0326629 -0.0816379,-0.0735397 -0.0816379,-0.122534 0,-0.0163507 0.0082332,-0.0408768 0.0082332,-0.0572082 0,-0.01637 0.00800182,-0.0408575 0.016235,-0.0654029l0.138923 -0.441161 -0.204307 0 0.0246803 -0.0816572 0.204191 0 0.0815415 -0.25332 0.351348 0 -0.0735204 0.25332 0.277943 0zm0 0.0490136l0.016235 -0.0490136 -0.016235 0 0 0.0490136zm0 0.0571504l0 -0.0490136 0.00804039 -0.0244682c0.0571504,-0.0163893 0.114436,-0.0326821 0.163353,-0.0408575 0.0572853,-0.0163893 0.106222,-0.0245646 0.155274,-0.0245646 0.0817536,0 0.14706,0.0163314 0.188072,0.0409154 0.0407033,0.0245068 0.073424,0.0571311 0.089659,0.106203l0.0082332 0c0.0654029,-0.0490714 0.13902,-0.0898711 0.212444,-0.114378 0.0816186,-0.0245646 0.163469,-0.0408961 0.245126,-0.0408961 0.0816379,0 0.147041,0.0163314 0.187956,0.0490714 0.0489557,0.032605 0.0652872,0.0734818 0.0652872,0.122476 0,0.01637 0,0.0326821 0,0.0572082 0,0.0245068 -0.00800182,0.04911 -0.0163314,0.0735589l-0.0815415 0.228775c-0.00832961,0.0163507 -0.0164471,0.0408382 -0.0245646,0.0653643 0,0.0245068 -0.0082332,0.0408382 -0.0082332,0.0571118 0,0.0327593 0.0082332,0.0490714 0.0327978,0.0654221 0.0161386,0.00817536 0.0488208,0.0163314 0.0978729,0.0163314 0.0163507,0 0.0408382,0 0.0735397,-0.00815608 0.0244489,-0.00817536 0.0407997,-0.00817536 0.0571697,-0.0163314l-0.0244875 0.0734625c-0.0735011,0.0245646 -0.130671,0.0408961 -0.171509,0.0490907 -0.0409154,0.0162736 -0.0898711,0.0162736 -0.147021,0.0162736 -0.0898711,0 -0.15539,-0.0162736 -0.204442,-0.0489557 -0.0489365,-0.0327014 -0.0735011,-0.0735397 -0.0735011,-0.122573 0,-0.00815608 0,-0.0245646 0.0082332,-0.0490136 0,-0.01637 0.00811751,-0.0408575 0.0163314,-0.0735589l0.0736361 -0.220503c0.00802111,-0.0245646 0.016235,-0.04911 0.0243525,-0.0654414 0,-0.0163507 0,-0.0326821 0,-0.0489943 0,-0.0245454 -0.00811751,-0.0408768 -0.0243525,-0.0572275 -0.0164471,-0.0163314 -0.0409346,-0.0245068 -0.08185,-0.0245068 -0.0244682,0 -0.0571889,0.00817536 -0.106222,0.0245068 -0.0488401,0.0163507 -0.0980079,0.0408382 -0.155158,0.0817921l-0.179742 0.596358 -0.359465 0 0.15537 -0.506487c0.00802111,-0.0164278 0.00802111,-0.0409539 0.0161386,-0.0654414 0.00821392,-0.0244297 0.0164471,-0.0408575 0.0164471,-0.0571889 0,-0.0326821 -0.0164471,-0.0571504 -0.0325857,-0.0653643 -0.0165821,-0.0162929 -0.0492642,-0.0162929 -0.0901025,-0.0162929 -0.0243525,0 -0.0490329,0 -0.0735011,0.00811751 -0.016235,0 -0.0326821,0 -0.0407225,0.00817536l0 0zm2.13238 -0.138904l0 0.0735204c-0.0327014,0.01637 -0.0653065,0.0490907 -0.0898711,0.0898711 -0.0571504,0.0653836 -0.08185,0.155255 -0.0981043,0.261457 0.0409539,-0.00807895 0.0816572,-0.00807895 0.122669,-0.0163122 0.0243911,0 0.0488401,-0.00819464 0.0653065,-0.00819464l0 0.0735589c-0.0491486,0.00813679 -0.114551,0.00813679 -0.187975,0.0163122 0,0.0245068 0,0.0490714 0.0082332,0.0816957 0.00802111,0.0326821 0.016235,0.0572275 0.0327207,0.0817343 0.016235,0.0245261 0.0407033,0.0408382 0.0733854,0.0571889 0.0244875,0.00817536 0.0489557,0.0163314 0.0736361,0.0163314l0 0.130767c-0.0164664,0 -0.0327014,0 -0.0571889,0 -0.0818307,0 -0.163469,-0.00821392 -0.228871,-0.0245454 -0.0654029,-0.0245068 -0.114339,-0.0490136 -0.163391,-0.081715 -0.0408189,-0.0245068 -0.0654029,-0.0653836 -0.0898711,-0.10626 -0.0245646,-0.0408189 -0.0326821,-0.0898518 -0.0326821,-0.138808 0,-0.0653836 0.0163314,-0.130786 0.0490329,-0.187956 0.0327014,-0.0653836 0.0816379,-0.122573 0.138808,-0.171528 0.0653836,-0.0409154 0.139155,-0.0816957 0.228775,-0.106203 0.0490714,-0.0163507 0.0982007,-0.03274 0.15539,-0.0409154l0 0zm1.79746 0.163391c0,0.0245261 -0.00832961,0.0490714 -0.0164471,0.0736361 -0.00821392,0.0244297 -0.0245646,0.0407611 -0.0407033,0.0571311 -0.0246996,0.0163122 -0.0491678,0.03274 -0.0654993,0.0408189 -0.0243718,0.00821392 -0.0571889,0.01637 -0.0981043,0.01637 -0.0571697,0 -0.0979886,-0.00815608 -0.130594,-0.0327014 -0.0327978,-0.0163122 -0.0491486,-0.0408575 -0.0491486,-0.0653836 0,-0.0244875 0.00811751,-0.0489943 0.0163507,-0.065345 0.0082332,-0.0163314 0.0246032,-0.0407997 0.0408382,-0.0735204 -0.0490714,0.0163314 -0.0898711,0.0327207 -0.122476,0.0571889 -0.0327014,0.0244875 -0.0654029,0.0490136 -0.0981043,0.0735204l-0.171605 0.588279 -0.359484 0 0.147156 -0.506487c0,-0.0164278 0.00811751,-0.0409539 0.016235,-0.0654414 0.00832961,-0.0244297 0.00832961,-0.0408575 0.00832961,-0.0571889 0,-0.0326821 -0.00832961,-0.0571504 -0.0245646,-0.0653643 -0.01637,-0.0162929 -0.0490521,-0.0162929 -0.0898711,-0.0162929 -0.0245646,0 -0.0490521,0 -0.0736168,0.00811751 -0.0243911,0 -0.0408382,0.00817536 -0.0653065,0.00817536l0.0244682 -0.0734818c0.0654029,-0.0163893 0.114455,-0.0326821 0.171644,-0.0408575 0.0489172,-0.0163893 0.106183,-0.0245646 0.155139,-0.0245646 0.0817536,0 0.147041,0.0163314 0.187956,0.0409154 0.0408382,0.0245068 0.0735204,0.0571311 0.0816572,0.106203l0.00821392 0c0.0735204,-0.0572275 0.138923,-0.098085 0.187995,-0.122553 0.0489172,-0.0163893 0.09795,-0.0327207 0.155139,-0.0327207 0.0654029,0 0.114359,0.0163314 0.147253,0.0490714 0.0324893,0.0245068 0.0571504,0.0652872 0.0571504,0.122476zm-1.79746 0.310509l0 -0.0735589c0.016235,-0.00807895 0.0243525,-0.00807895 0.0407225,-0.0163122 0.0491486,-0.01637 0.0898711,-0.0408382 0.114436,-0.0653836 0.0244682,-0.0327014 0.0327207,-0.0653836 0.0327207,-0.114378 0,-0.0490329 -0.00825248,-0.0816572 -0.0327207,-0.106222 -0.0163507,-0.0245261 -0.0490521,-0.0407997 -0.0898711,-0.0407997 -0.0245646,0 -0.0409346,0.00817536 -0.0652872,0.0162736l0 -0.0735204c0.0489172,0 0.0979886,-0.00815608 0.147041,-0.00815608 0.130671,0 0.228659,0.0163314 0.294062,0.0490714 0.0735397,0.032605 0.106222,0.0816957 0.106222,0.138846 0,0.0572661 -0.0326821,0.114397 -0.0898711,0.155216 -0.0571504,0.0408382 -0.138904,0.0735589 -0.236893,0.098085 -0.0817536,0.0163893 -0.147156,0.0326243 -0.204326,0.0408382 -0.0082332,0 -0.0082332,0 -0.016235,0l0 0zm0 0.38403l0 -0.130767c0.016235,0 0.032605,0.00817536 0.0489172,0.00817536 0.0816765,0 0.155409,-0.0163314 0.22058,-0.0408575 0.0571697,-0.0245068 0.114359,-0.065345 0.171605,-0.122573l0.0735397 0.0572275c-0.0653836,0.065345 -0.14706,0.122534 -0.245145,0.163411 -0.0898711,0.0326821 -0.179626,0.0571697 -0.269498,0.0653836l0 0z"/>
   <polygon id="_120617712" class="fil2" points="12.0911,9.65192 44.8779,9.65192 44.8779,9.2842 12.0911,9.2842 "/>
   <path id="_120617784" class="fil1" d="M31.3809 8.9166l13.4971 0 0 0.367602 -13.4971 0 0 -0.367602zm-5.13083 0l2.97388 0 0 0.367602 -2.97388 0 0 -0.367602zm-14.1589 0l11.667 0 0 0.367602 -11.667 0 0 -0.367602z"/>
  </g>
  <rect class="fil3" width="46.2756" height="15.4252"/>
 </g>
</svg>
